<?xml version="1.0" encoding="utf-8"?>
<!-- Generator: Adobe Illustrator 21.1.0, SVG Export Plug-In . SVG Version: 6.00 Build 0)  -->
<svg version="1.1" id="Camada_1" xmlns="http://www.w3.org/2000/svg" xmlns:xlink="http://www.w3.org/1999/xlink" x="0px" y="0px"
	 viewBox="0 0 33.6 33.6" style="enable-background:new 0 0 33.6 33.6;" xml:space="preserve">
<style type="text/css">
	.st0{fill:#FFFFFF;}
	.st1{fill:#B7B7B7;}
</style>
<g>
	<circle class="st0" cx="16.8" cy="16.8" r="16.8"/>
	<g>
		<path class="st1" d="M15.4,15.6l9.5-2.6l0.9-5.2l-10.1,4.4c-1.4,0.6-2.9,0.9-4.4,0.9h-1.2L8.9,16h3.6C13.4,16,14.4,15.8,15.4,15.6
			z"/>
		<path class="st1" d="M7.4,19.6h7l9.3,0.5l0.9-5.1L15,16.7c-0.6,0.1-1.3,0.2-1.9,0.2H8.5L7.4,19.6z"/>
		<path class="st1" d="M13,20.5H7l-1.2,2.8h6.4c1.7,0,3.4,0.3,5,0.7l5.4,1.7l0.7-3.7l-7.4-1.3C14.9,20.6,14,20.5,13,20.5z"/>
	</g>
</g>
</svg>
