<?xml version="1.0" encoding="utf-8"?>
<!-- Generator: Adobe Illustrator 21.1.0, SVG Export Plug-In . SVG Version: 6.00 Build 0)  -->
<svg version="1.1" id="Camada_1" xmlns="http://www.w3.org/2000/svg" xmlns:xlink="http://www.w3.org/1999/xlink" x="0px" y="0px"
	 viewBox="0 0 33.6 33.6" style="enable-background:new 0 0 33.6 33.6;" xml:space="preserve">
<style type="text/css">
	.st0{fill:#FFFFFF;}
	.st1{fill:#F37021;}
</style>
<circle class="st0" cx="16.8" cy="16.8" r="16.8"/>
<g>
	<path class="st1" d="M15.3,15.4l10.6-2.9l1-5.7l-11.2,4.9c-1.5,0.7-3.2,1-4.9,1H9.5l-1.3,3.1h3.9C13.2,15.9,14.3,15.7,15.3,15.4z"
		/>
	<path class="st1" d="M6.4,19.9h7.7l10.3,0.5l1-5.6l-10.6,1.9c-0.7,0.1-1.4,0.2-2.2,0.2h-5L6.4,19.9z"/>
	<path class="st1" d="M12.7,21H6l-1.3,3.1h7.1c1.9,0,3.7,0.3,5.5,0.8l6,1.8l0.7-4.1l-8.3-1.5C14.8,21.1,13.7,21,12.7,21z"/>
</g>
</svg>
